<svg width="500" height="500" viewBox="0 0 500 500" fill="none" xmlns="http://www.w3.org/2000/svg">
<path d="M437.5 93.75H62.5C58.356 93.75 54.3817 95.3962 51.4515 98.3265C48.5212 101.257 46.875 105.231 46.875 109.375V375C46.875 383.288 50.1674 391.237 56.0279 397.097C61.8884 402.958 69.837 406.25 78.125 406.25H421.875C430.163 406.25 438.112 402.958 443.972 397.097C449.833 391.237 453.125 383.288 453.125 375V109.375C453.125 105.231 451.479 101.257 448.549 98.3265C445.618 95.3962 441.644 93.75 437.5 93.75ZM421.875 375H78.125V144.902L239.434 292.773C242.316 295.42 246.087 296.888 250 296.888C253.913 296.888 257.684 295.42 260.566 292.773L421.875 144.902V375Z" fill="#ED212D"/>
</svg>
