<svg width="500" height="500" viewBox="0 0 500 500" fill="none" xmlns="http://www.w3.org/2000/svg">
<g clip-path="url(#clip0_75_5)">
<path d="M402.25 123.125H97.75C94.3851 123.125 91.1579 124.462 88.7786 126.841C86.3992 129.22 85.0625 132.448 85.0625 135.812V351.5C85.0625 358.23 87.7359 364.684 92.4947 369.443C97.2534 374.202 103.708 376.875 110.438 376.875H389.562C396.292 376.875 402.747 374.202 407.505 369.443C412.264 364.684 414.938 358.23 414.938 351.5V135.812C414.938 132.448 413.601 129.22 411.221 126.841C408.842 124.462 405.615 123.125 402.25 123.125ZM369.627 148.5L250 258.168L130.373 148.5H369.627ZM389.562 351.5H110.438V164.661L241.42 284.732C243.761 286.881 246.823 288.073 250 288.073C253.177 288.073 256.239 286.881 258.58 284.732L389.562 164.661V351.5Z" fill="white"/>
</g>
<defs>
<clipPath id="clip0_75_5">
<rect width="500" height="500" rx="250" fill="white"/>
</clipPath>
</defs>
</svg>
