<svg width="500" height="500" viewBox="0 0 500 500" fill="none" xmlns="http://www.w3.org/2000/svg">
<path d="M421.875 46.875H78.125C69.837 46.875 61.8884 50.1674 56.0279 56.0279C50.1674 61.8884 46.875 69.837 46.875 78.125V421.875C46.875 430.163 50.1674 438.112 56.0279 443.972C61.8884 449.833 69.837 453.125 78.125 453.125H421.875C430.163 453.125 438.112 449.833 443.972 443.972C449.833 438.112 453.125 430.163 453.125 421.875V78.125C453.125 69.837 449.833 61.8884 443.972 56.0279C438.112 50.1674 430.163 46.875 421.875 46.875ZM187.5 343.75C187.5 347.894 185.854 351.868 182.924 354.799C179.993 357.729 176.019 359.375 171.875 359.375C167.731 359.375 163.757 357.729 160.826 354.799C157.896 351.868 156.25 347.894 156.25 343.75V218.75C156.25 214.606 157.896 210.632 160.826 207.701C163.757 204.771 167.731 203.125 171.875 203.125C176.019 203.125 179.993 204.771 182.924 207.701C185.854 210.632 187.5 214.606 187.5 218.75V343.75ZM171.875 187.5C167.24 187.5 162.708 186.125 158.854 183.55C155 180.975 151.996 177.314 150.222 173.032C148.448 168.749 147.984 164.036 148.888 159.49C149.792 154.944 152.024 150.767 155.302 147.49C158.58 144.212 162.756 141.98 167.303 141.075C171.849 140.171 176.561 140.635 180.844 142.409C185.127 144.183 188.787 147.187 191.363 151.041C193.938 154.896 195.312 159.427 195.312 164.062C195.312 170.279 192.843 176.24 188.448 180.635C184.052 185.031 178.091 187.5 171.875 187.5ZM359.375 343.75C359.375 347.894 357.729 351.868 354.799 354.799C351.868 357.729 347.894 359.375 343.75 359.375C339.606 359.375 335.632 357.729 332.701 354.799C329.771 351.868 328.125 347.894 328.125 343.75V273.438C328.125 263.077 324.009 253.142 316.684 245.816C309.358 238.491 299.423 234.375 289.062 234.375C278.702 234.375 268.767 238.491 261.441 245.816C254.116 253.142 250 263.077 250 273.438V343.75C250 347.894 248.354 351.868 245.424 354.799C242.493 357.729 238.519 359.375 234.375 359.375C230.231 359.375 226.257 357.729 223.326 354.799C220.396 351.868 218.75 347.894 218.75 343.75V218.75C218.769 214.923 220.193 211.236 222.75 208.388C225.308 205.541 228.821 203.731 232.624 203.302C236.428 202.874 240.256 203.856 243.383 206.062C246.51 208.269 248.719 211.547 249.59 215.273C260.16 208.103 272.483 203.947 285.237 203.252C297.991 202.557 310.693 205.35 321.98 211.329C333.266 217.309 342.711 226.25 349.299 237.192C355.887 248.135 359.371 260.665 359.375 273.438V343.75Z" fill="#ED212D"/>
</svg>
