<svg width="500" height="500" viewBox="0 0 500 500" fill="none" xmlns="http://www.w3.org/2000/svg">
<g clip-path="url(#clip0_75_8)">
<path d="M389.562 85.0625H110.438C103.708 85.0625 97.2534 87.7359 92.4947 92.4947C87.7359 97.2534 85.0625 103.708 85.0625 110.438V389.562C85.0625 396.292 87.7359 402.747 92.4947 407.505C97.2534 412.264 103.708 414.938 110.438 414.938H389.562C396.292 414.938 402.747 412.264 407.505 407.505C412.264 402.747 414.938 396.292 414.938 389.562V110.438C414.938 103.708 412.264 97.2534 407.505 92.4947C402.747 87.7359 396.292 85.0625 389.562 85.0625ZM389.562 389.562H110.438V110.438H389.562V389.562ZM199.25 224.625V326.125C199.25 329.49 197.913 332.717 195.534 335.096C193.155 337.476 189.927 338.812 186.562 338.812C183.198 338.812 179.97 337.476 177.591 335.096C175.212 332.717 173.875 329.49 173.875 326.125V224.625C173.875 221.26 175.212 218.033 177.591 215.654C179.97 213.274 183.198 211.938 186.562 211.938C189.927 211.938 193.155 213.274 195.534 215.654C197.913 218.033 199.25 221.26 199.25 224.625ZM338.812 269.031V326.125C338.812 329.49 337.476 332.717 335.096 335.096C332.717 337.476 329.49 338.812 326.125 338.812C322.76 338.812 319.533 337.476 317.154 335.096C314.774 332.717 313.438 329.49 313.438 326.125V269.031C313.438 260.619 310.096 252.551 304.147 246.603C298.199 240.654 290.131 237.312 281.719 237.312C273.306 237.312 265.239 240.654 259.29 246.603C253.342 252.551 250 260.619 250 269.031V326.125C250 329.49 248.663 332.717 246.284 335.096C243.905 337.476 240.677 338.812 237.312 338.812C233.948 338.812 230.72 337.476 228.341 335.096C225.962 332.717 224.625 329.49 224.625 326.125V224.625C224.641 221.517 225.797 218.523 227.873 216.211C229.95 213.899 232.803 212.43 235.891 212.082C238.979 211.733 242.088 212.531 244.627 214.323C247.166 216.114 248.96 218.776 249.667 221.802C258.25 215.98 268.257 212.605 278.613 212.041C288.969 211.477 299.283 213.744 308.447 218.599C317.612 223.455 325.281 230.715 330.631 239.6C335.981 248.485 338.809 258.66 338.812 269.031ZM205.594 180.219C205.594 183.983 204.478 187.662 202.386 190.792C200.295 193.922 197.323 196.361 193.845 197.801C190.368 199.242 186.541 199.619 182.85 198.884C179.158 198.15 175.767 196.337 173.105 193.676C170.444 191.014 168.631 187.623 167.897 183.932C167.163 180.24 167.539 176.413 168.98 172.936C170.42 169.458 172.86 166.486 175.989 164.395C179.119 162.304 182.798 161.188 186.562 161.188C191.61 161.188 196.451 163.193 200.02 166.762C203.589 170.331 205.594 175.171 205.594 180.219Z" fill="white"/>
</g>
<defs>
<clipPath id="clip0_75_8">
<rect width="500" height="500" rx="250" fill="white"/>
</clipPath>
</defs>
</svg>
