<svg width="500" height="500" viewBox="0 0 500 500" fill="none" xmlns="http://www.w3.org/2000/svg">
<path d="M250 46.875C209.826 46.875 170.554 58.7881 137.15 81.1077C103.746 103.427 77.7111 135.151 62.3371 172.267C46.963 209.384 42.9405 250.225 50.7781 289.628C58.6157 329.03 77.9615 365.224 106.369 393.631C134.777 422.039 170.97 441.384 210.372 449.222C249.775 457.06 290.616 453.037 327.733 437.663C364.849 422.289 396.573 396.254 418.892 362.85C441.212 329.446 453.125 290.174 453.125 250C453.063 196.147 431.643 144.517 393.563 106.437C355.483 68.3576 303.853 46.937 250 46.875ZM403.047 171.875H333.418C324.65 139.705 309.871 109.486 289.863 82.8125C314.037 88.6197 336.67 99.5855 356.209 114.958C375.749 130.331 391.733 149.747 403.066 171.875H403.047ZM421.875 250C421.889 265.851 419.7 281.627 415.371 296.875H340.156C344.948 265.809 344.948 234.191 340.156 203.125H415.371C419.7 218.373 421.889 234.149 421.875 250ZM250 83.9844C273.397 109.034 290.766 139.094 300.781 171.875H199.219C209.224 139.09 226.594 109.027 250 83.9844ZM199.219 328.125H300.781C290.776 360.91 273.406 390.973 250 416.016C226.603 390.966 209.235 360.906 199.219 328.125ZM191.602 296.875C186.237 265.855 186.237 234.145 191.602 203.125H308.555C313.919 234.145 313.919 265.855 308.555 296.875H191.602ZM289.941 417.188C309.949 390.514 324.728 360.295 333.496 328.125H403.145C391.803 350.262 375.807 369.683 356.253 385.056C336.699 400.429 314.052 411.39 289.863 417.188H289.941Z" fill="#ED212D"/>
</svg>
