<svg width="500" height="500" viewBox="0 0 500 500" fill="none" xmlns="http://www.w3.org/2000/svg">
<g clip-path="url(#clip0_75_2)">
<path d="M250.5 78C216.383 78 183.032 88.1169 154.664 107.071C126.297 126.026 104.187 152.967 91.1309 184.487C78.0747 216.007 74.6587 250.691 81.3146 284.153C87.9706 317.615 104.4 348.351 128.524 372.476C152.649 396.6 183.385 413.029 216.847 419.685C250.309 426.341 284.993 422.925 316.513 409.869C348.033 396.813 374.974 374.703 393.929 346.336C412.883 317.968 423 284.617 423 250.5C422.947 204.766 404.756 160.921 372.418 128.582C340.079 96.2436 296.234 78.0527 250.5 78ZM396.462 250.5C396.473 263.961 394.614 277.358 390.938 290.308H327.063C331.133 263.925 331.133 237.075 327.063 210.692H390.938C394.614 223.642 396.473 237.039 396.462 250.5ZM207.375 316.846H293.625C285.128 344.688 270.377 370.219 250.5 391.486C230.631 370.213 215.881 344.684 207.375 316.846ZM200.906 290.308C196.351 263.965 196.351 237.035 200.906 210.692H300.226C304.782 237.035 304.782 263.965 300.226 290.308H200.906ZM104.539 250.5C104.527 237.039 106.386 223.642 110.062 210.692H173.937C169.867 237.075 169.867 263.925 173.937 290.308H110.062C106.386 277.358 104.527 263.961 104.539 250.5ZM293.625 184.154H207.375C215.872 156.312 230.623 130.781 250.5 109.514C270.369 130.787 285.119 156.316 293.625 184.154ZM380.422 184.154H321.341C313.895 156.834 301.344 131.171 284.353 108.519C304.882 113.451 324.103 122.763 340.696 135.818C357.29 148.873 370.864 165.362 380.489 184.154H380.422ZM216.647 108.519C199.656 131.171 187.105 156.834 179.659 184.154H120.511C130.136 165.362 143.71 148.873 160.304 135.818C176.897 122.763 196.118 113.451 216.647 108.519ZM120.511 316.846H179.659C187.105 344.166 199.656 369.829 216.647 392.481C196.118 387.549 176.897 378.237 160.304 365.182C143.71 352.127 130.136 335.638 120.511 316.846ZM284.353 392.481C301.344 369.829 313.895 344.166 321.341 316.846H380.489C370.864 335.638 357.29 352.127 340.696 365.182C324.103 378.237 304.882 387.549 284.353 392.481Z" fill="white"/>
</g>
<defs>
<clipPath id="clip0_75_2">
<rect width="500" height="500" rx="250" fill="white"/>
</clipPath>
</defs>
</svg>
